PathFileType	4	(X/Y/Z)	D:\MotionData\Pi-Spi Study\20230118_AMCsubject1\Trimmed_left_abd_18001_rotated.trc
DataRate	CameraRate	NumFrames	NumMarkers	Units	OrigDataRate	OrigDataStartFrame	OrigNumFrames
200.00	200.00	       10	35	mm	200.00	176	       200
Frame#	Time	C7			Sternum			r_AMC1			r_AMC2			r_AMC3			l_AMC1			l_AMC2			l_AMC3			PX			T8			r_humerous			r_elbow_medial			r_elbow_lateral			r_forearm			r_wrist_radius			r_wrist_ulna			r_MCP_1			r_MCP_3			l_humerous			l_elbow_medial			l_elbow_lateral			l_forearm			l_wrist_radius			l_wrist_ulna			l_MCP_1			l_MCP_3			r_ASIS			r_PSIS			l_ASIS			l_PSIS			r_IC			l_IC			TS			AI			AA			
		X1	Y1	Z1	X2	Y2	Z2	X3	Y3	Z3	X4	Y4	Z4	X5	Y5	Z5	X6	Y6	Z6	X7	Y7	Z7	X8	Y8	Z8	X9	Y9	Z9	X10	Y10	Z10	X11	Y11	Z11	X12	Y12	Z12	X13	Y13	Z13	X14	Y14	Z14	X15	Y15	Z15	X16	Y16	Z16	X17	Y17	Z17	X18	Y18	Z18	X19	Y19	Z19	X20	Y20	Z20	X21	Y21	Z21	X22	Y22	Z22	X23	Y23	Z23	X24	Y24	Z24	X25	Y25	Z25	X26	Y26	Z26	X27	Y27	Z27	X28	Y28	Z28	X29	Y29	Z29	X30	Y30	Z30	X31	Y31	Z31	X32	Y32	Z32	X33	Y33	Z33	X34	Y34	Z34	X35	Y35	Z35	

176	0.875	201.2949	1368.9785	-206.927	341.4011	1326.1638	-196.4327	196.3988	1310.6096	-58.2363	228.4914	1313.5338	-19.3705	247.9318	1350.4558	-38.2316	186.9342	1349.3287	-326.6211	218.899	1384.8814	-343.7144	217.1006	1401.699	-294.2959	415.7938	1137.5107	-206.0733	180.6837	1188.8201	-222.711	311.1146	1134.4391	-3.7219	250.5913	990.9894	-36.7342	261.2039	1000.6351	28.4628	317.4513	846.8685	52.8954	369.0946	785.9167	36.8624	320.7489	777.641	52.4449	392.7403	703.3857	49.5476	343.7112	698.4268	61.8673	302.3725	1484.2263	-350.5326	366.2272	1568.4152	-455.3148	321.367	1594.2839	-450.6875	347.7554	1751.2131	-460.8892	386.3254	1822.0787	-445.8674	377.6198	1817.4999	-490.1808	377.7085	1892.4989	-448.236	375.3496	1888.616	-491.4619	375.5872	905.6025	-79.7893	190.0516	929.8285	-167.3982	382.227	893.1719	-336.8286	193.4514	924.1828	-269.1536	294.9135	969.0754	-53.7187	298.3612	941.9023	-377.2359	127.9863	1290.1135	-288.6266	153.5412	1209.4189	-344.3023	161.6399	1377.3599	-391.6983
177	0.88	201.2996	1368.9778	-206.9461	341.4504	1326.1802	-196.408	196.3861	1310.6054	-58.2677	228.4796	1313.5184	-19.3817	247.9032	1350.4712	-38.2379	186.9653	1349.3184	-326.6269	218.9299	1384.8486	-343.7226	217.1308	1401.698	-294.3103	415.7973	1137.5012	-206.042	180.694	1188.8093	-222.7348	311.0351	1134.4155	-3.6777	250.5539	990.975	-36.7188	261.0925	1000.5692	28.4981	317.4334	846.8736	52.9087	369.0463	785.9127	36.8992	320.7551	777.6135	52.469	392.7977	703.2671	49.5647	343.5961	698.4869	61.9789	302.3509	1484.2103	-350.5886	366.1904	1568.4001	-455.3995	321.3153	1594.246	-450.7664	347.6244	1751.1956	-460.9983	386.1487	1822.1211	-445.9998	377.4589	1817.4944	-490.3209	377.4272	1892.5463	-448.4345	375.1114	1888.546	-491.6787	375.5562	905.6296	-79.8032	190.0319	929.8069	-167.3925	382.2114	893.1659	-336.8147	193.4239	924.1669	-269.121	294.9101	969.0894	-53.7253	298.4085	941.94	-377.3041	128.3685	1290.0245	-288.7101	153.5454	1209.4323	-344.3019	161.6881	1377.3929	-391.7156
178	0.885	201.3404	1368.9673	-206.9562	341.43	1326.1751	-196.3854	196.37	1310.6103	-58.2847	228.4687	1313.5588	-19.4456	247.8949	1350.4274	-38.2413	187.009	1349.3241	-326.6356	218.9447	1384.8619	-343.728	217.1444	1401.6904	-294.3176	415.7567	1137.4501	-206.014	180.7073	1188.8301	-222.751	311.0315	1134.4131	-3.6707	250.5306	990.9829	-36.6999	261.0783	1000.6061	28.5011	317.4084	846.891	52.9732	368.9957	785.945	36.9619	320.6639	777.705	52.496	392.7385	703.2855	49.647	343.5451	698.5495	62.0176	302.3828	1484.192	-350.6327	366.1823	1568.3488	-455.4448	321.2529	1594.2134	-450.9028	347.4814	1751.1844	-461.1399	385.8984	1822.0929	-446.1411	377.291	1817.5004	-490.4594	377.1744	1892.541	-448.608	374.8601	1888.5443	-491.8767	375.4996	905.5959	-79.8144	190.013	929.8151	-167.4027	382.2396	893.1547	-336.8316	193.4358	924.1741	-269.1443	294.8895	969.1157	-53.7146	298.4436	941.8396	-377.2806	128.0262	1290.16	-288.6473	153.5601	1209.4397	-344.309	161.7328	1377.4174	-391.7077
179	0.89	201.3699	1368.9817	-206.9771	341.4388	1326.1589	-196.3814	196.3666	1310.6322	-58.3131	228.44	1313.5571	-19.4414	247.8241	1350.4753	-38.2315	187.0234	1349.3262	-326.6236	218.9911	1384.8705	-343.7261	217.1931	1401.6935	-294.3317	415.7924	1137.4377	-206.025	180.7183	1188.8264	-222.7466	310.9779	1134.4522	-3.6962	250.5137	990.9844	-36.6933	261.032	1000.6122	28.5014	317.3618	846.8928	52.9975	368.9332	785.9851	37.0526	320.6822	777.645	52.5531	392.7507	703.2317	49.7191	343.6421	698.4288	62.0093	302.3461	1484.1699	-350.6711	366.1338	1568.3229	-455.5345	321.1818	1594.1875	-451.0073	347.3309	1751.1813	-461.2574	385.6176	1822.1287	-446.2929	377.1451	1817.5118	-490.6085	376.9604	1892.5792	-448.8095	374.6197	1888.5275	-492.0427	375.5345	905.6232	-79.7775	189.9701	929.764	-167.4612	382.2281	893.1575	-336.8011	193.4126	924.1577	-269.1357	294.8398	969.0661	-53.7212	298.3791	941.8505	-377.2334	128.0348	1290.1838	-288.6687	153.5725	1209.4608	-344.362	161.7742	1377.4351	-391.7447
180	0.895	201.3893	1368.9871	-206.9765	341.4779	1326.1599	-196.3737	196.3483	1310.6189	-58.3271	228.4269	1313.5131	-19.4446	247.8101	1350.502	-38.2809	187.0457	1349.3147	-326.6511	219.0273	1384.8278	-343.7402	217.2063	1401.6893	-294.3329	415.7455	1137.4059	-205.9916	180.7129	1188.8381	-222.7675	310.9169	1134.455	-3.6191	250.4823	990.9968	-36.6909	260.9752	1000.5975	28.5281	317.3131	846.9105	53.0547	368.8982	786.0345	37.0972	320.7072	777.617	52.5873	392.6563	703.3042	49.798	343.5999	698.4475	62.1185	302.3296	1484.2047	-350.6976	366.0841	1568.3431	-455.601	321.1168	1594.1422	-451.1018	347.1575	1751.1827	-461.4204	385.4231	1822.1442	-446.4549	376.931	1817.4945	-490.7439	376.6773	1892.5773	-448.9838	374.4026	1888.5116	-492.1868	375.4796	905.5999	-79.7654	189.982	929.7994	-167.4008	382.2353	893.1551	-336.8213	193.3909	924.1804	-269.1255	294.8367	969.0452	-53.7172	298.4931	941.7726	-377.272	128.0718	1290.2253	-288.694	153.5768	1209.4764	-344.3604	161.8015	1377.4739	-391.7366
181	0.9	201.4236	1369.001	-207.0076	341.477	1326.1249	-196.3683	196.3295	1310.6342	-58.3488	228.3659	1313.5674	-19.475	247.4609	1350.3231	-38.23	187.0793	1349.2946	-326.6491	219.5333	1384.6537	-343.8967	217.2348	1401.6589	-294.342	415.74	1137.4044	-205.9898	180.7253	1188.8372	-222.7891	310.8771	1134.4674	-3.6252	250.4525	990.9907	-36.6833	260.9813	1000.6649	28.5586	317.4955	847.0106	53.2108	368.9349	785.9764	37.107	320.5326	777.755	52.6995	392.5751	703.3547	49.9012	343.5371	698.4404	62.1668	302.2728	1484.2041	-350.7259	366.034	1568.3306	-455.6447	321.2687	1593.9825	-451.006	346.9735	1751.1377	-461.6031	385.1796	1822.1529	-446.5814	376.7794	1817.5055	-490.8854	376.4007	1892.5748	-449.1531	374.1847	1888.4941	-492.3875	375.502	905.5743	-79.7946	189.9737	929.7842	-167.4299	382.2372	893.1348	-336.7954	193.3911	924.1399	-269.1387	294.8614	969.0096	-53.6936	298.4593	941.8062	-377.2696	128.0744	1290.2145	-288.6993	153.5809	1209.4692	-344.4027	161.8198	1377.4879	-391.7375
182	0.905	201.4655	1368.9736	-207.0081	341.5215	1326.1477	-196.3289	196.3116	1310.6456	-58.3788	228.355	1313.5482	-19.4841	247.784	1350.4701	-38.2999	187.1137	1349.3085	-326.6481	219.558	1384.6492	-343.9032	217.2629	1401.6582	-294.3406	415.7708	1137.408	-205.9421	180.7228	1188.8425	-222.7911	310.8878	1134.412	-3.6463	250.4099	990.9823	-36.6627	260.9101	1000.6445	28.6145	317.2129	846.9735	53.1315	368.9205	785.9917	37.1595	320.4857	777.773	52.6671	392.5668	703.3268	49.9061	343.4885	698.5145	62.2304	302.2214	1484.2039	-350.7577	365.986	1568.3014	-455.6694	321.0084	1594.0853	-451.3071	346.7847	1751.1315	-461.7549	384.9636	1822.1331	-446.7326	376.5819	1817.5082	-491.0505	376.1083	1892.6043	-449.3388	373.9289	1888.5575	-492.5567	375.4082	905.5865	-79.7486	189.9764	929.7886	-167.4279	382.2798	893.1099	-336.7939	193.4034	924.1456	-269.1501	294.7615	969.0316	-53.6625	298.4907	941.7552	-377.2454	128.0788	1290.2454	-288.6515	153.5789	1209.5045	-344.3851	161.8303	1377.4856	-391.7306
183	0.91	201.4775	1368.99	-207.0166	341.5362	1326.1175	-196.3489	196.2877	1310.6737	-58.3905	228.2896	1313.6027	-19.4981	247.4241	1350.3409	-38.2685	187.0995	1349.3069	-326.6425	219.5887	1384.6309	-343.8872	217.2853	1401.644	-294.368	415.7322	1137.3589	-205.941	180.7182	1188.8512	-222.799	310.8389	1134.4272	-3.6073	250.372	990.9817	-36.6446	260.8372	1000.656	28.6319	317.2271	846.9592	53.1483	368.8947	786.0116	37.163	320.5402	777.6632	52.7128	392.4783	703.4053	49.9964	343.3834	698.5272	62.2715	302.2145	1484.2001	-350.8381	365.9407	1568.3468	-455.8072	320.9405	1594.0674	-451.4002	346.5963	1751.0986	-461.8961	384.7169	1822.1737	-446.8942	376.3555	1817.4889	-491.2117	375.7768	1892.6123	-449.5285	373.6848	1888.4878	-492.7876	375.4162	905.5624	-79.7186	189.9474	929.7852	-167.4316	382.2401	893.0974	-336.7672	193.4089	924.1313	-269.1719	294.7964	968.9594	-53.6536	298.4294	941.805	-377.2421	128.1033	1290.2585	-288.6703	153.5589	1209.5098	-344.3837	161.8664	1377.5071	-391.7597
184	0.915	201.5073	1368.9869	-207.0161	341.5364	1326.123	-196.3171	196.272	1310.702	-58.4406	228.3259	1313.5728	-19.5297	247.4251	1350.3185	-38.2899	187.115	1349.2863	-326.6349	219.6075	1384.6222	-343.901	217.3252	1401.6414	-294.3736	415.7582	1137.3473	-205.9356	180.7283	1188.8611	-222.8074	310.7817	1134.4332	-3.5711	250.3462	990.9898	-36.6386	260.7986	1000.6878	28.648	317.1836	846.9597	53.1873	368.8317	785.9642	37.2807	320.4848	777.7342	52.7829	392.4566	703.3743	50.0688	343.2902	698.618	62.3212	302.1953	1484.2142	-350.9062	365.921	1568.2869	-455.8533	320.87	1594.0508	-451.5084	346.4038	1751.1017	-462.0297	384.4703	1822.2112	-447.0836	376.1422	1817.4955	-491.3771	375.4617	1892.6242	-449.7143	373.4199	1888.476	-492.9547	375.451	905.5868	-79.7016	189.9369	929.7802	-167.4365	382.2263	893.0779	-336.7474	193.3937	924.148	-269.1544	294.7359	968.9606	-53.6445	298.4631	941.7136	-377.2202	128.4854	1290.1762	-288.7496	153.5768	1209.5244	-344.3664	161.8856	1377.5323	-391.7402
185	0.92	201.5215	1368.9976	-207.0557	341.5448	1326.1266	-196.3163	196.2646	1310.7098	-58.4475	228.2495	1313.5786	-19.5126	247.4118	1350.3844	-38.3775	187.1446	1349.3031	-326.6445	219.6235	1384.6127	-343.9161	217.342	1401.635	-294.3843	415.7295	1137.37	-205.8904	180.7576	1188.8517	-222.8071	310.7289	1134.4842	-3.5628	250.3243	991.0021	-36.6368	260.738	1000.6898	28.6743	317.1042	846.9912	53.2408	368.7973	786.0312	37.3006	320.4176	777.7275	52.8047	392.4219	703.3958	50.1215	343.3549	698.486	62.3533	302.1462	1484.1932	-350.9575	365.8359	1568.2922	-455.9198	320.8306	1594.0323	-451.6002	346.2442	1751.1011	-462.179	384.2216	1822.2632	-447.2639	375.9564	1817.4767	-491.5339	375.1963	1892.646	-449.883	373.157	1888.4581	-493.1404	375.4225	905.5149	-79.6998	189.933	929.7894	-167.4337	382.2395	893.0624	-336.7515	193.3965	924.1576	-269.1573	294.6523	968.9834	-53.6116	298.5088	941.7127	-377.2239	128.1232	1290.3057	-288.6612	153.5714	1209.574	-344.345	161.8737	1377.5364	-391.7435
